<mxfile host="app.diagrams.net" modified="2024-01-03T10:22:15.139Z" agent="Mozilla/5.0 (Windows NT 10.0; Win64; x64) AppleWebKit/537.36 (KHTML, like Gecko) Chrome/120.0.0.0 Safari/537.36 Edg/120.0.0.0" etag="nk065OTY4mI5O-Bzs3jf" version="22.1.16" type="github">
  <diagram name="페이지-1" id="Iz7dQucZnOFJZLNLOV6f">
    <mxGraphModel dx="1636" dy="1947" grid="1" gridSize="10" guides="1" tooltips="1" connect="1" arrows="1" fold="1" page="0" pageScale="1" pageWidth="827" pageHeight="1169" math="0" shadow="0">
      <root>
        <mxCell id="0" />
        <mxCell id="1" parent="0" />
        <mxCell id="F7GSqLhQtPNdiJpHItuA-5" value="고객" style="whiteSpace=wrap;html=1;align=center;fontSize=16;" parent="1" vertex="1">
          <mxGeometry x="-500" y="-690" width="100" height="40" as="geometry" />
        </mxCell>
        <mxCell id="F7GSqLhQtPNdiJpHItuA-6" value="지역" style="ellipse;whiteSpace=wrap;html=1;align=center;fontSize=16;fontColor=#FF0F0F;" parent="1" vertex="1">
          <mxGeometry x="-630" y="-640" width="100" height="40" as="geometry" />
        </mxCell>
        <mxCell id="F7GSqLhQtPNdiJpHItuA-7" value="이메일" style="ellipse;whiteSpace=wrap;html=1;align=center;fontStyle=4;fontSize=16;fontColor=#030303;" parent="1" vertex="1">
          <mxGeometry x="-440" y="-770" width="100" height="40" as="geometry" />
        </mxCell>
        <mxCell id="F7GSqLhQtPNdiJpHItuA-9" value="주소" style="ellipse;whiteSpace=wrap;html=1;align=center;fontSize=16;fontColor=#f00000;" parent="1" vertex="1">
          <mxGeometry x="-650" y="-690" width="100" height="40" as="geometry" />
        </mxCell>
        <mxCell id="F7GSqLhQtPNdiJpHItuA-10" value="상세주소" style="ellipse;whiteSpace=wrap;html=1;align=center;fontSize=16;" parent="1" vertex="1">
          <mxGeometry x="-760" y="-660" width="100" height="40" as="geometry" />
        </mxCell>
        <mxCell id="F7GSqLhQtPNdiJpHItuA-11" value="기본주소" style="ellipse;whiteSpace=wrap;html=1;align=center;fontSize=16;" parent="1" vertex="1">
          <mxGeometry x="-760" y="-710" width="100" height="40" as="geometry" />
        </mxCell>
        <mxCell id="F7GSqLhQtPNdiJpHItuA-12" value="전화번호" style="ellipse;whiteSpace=wrap;html=1;align=center;fontStyle=4;fontSize=16;" parent="1" vertex="1">
          <mxGeometry x="-550" y="-790" width="100" height="40" as="geometry" />
        </mxCell>
        <mxCell id="F7GSqLhQtPNdiJpHItuA-13" value="고객코드" style="ellipse;whiteSpace=wrap;html=1;align=center;fontStyle=4;fontSize=16;fontColor=#FF2129;" parent="1" vertex="1">
          <mxGeometry x="-350" y="-730" width="100" height="40" as="geometry" />
        </mxCell>
        <mxCell id="F7GSqLhQtPNdiJpHItuA-14" value="제품" style="ellipse;whiteSpace=wrap;html=1;align=center;fontSize=16;" parent="1" vertex="1">
          <mxGeometry x="-430" y="-610" width="100" height="40" as="geometry" />
        </mxCell>
        <mxCell id="F7GSqLhQtPNdiJpHItuA-21" value="" style="endArrow=none;html=1;rounded=0;fontSize=12;startSize=8;endSize=8;curved=1;entryX=0.5;entryY=1;entryDx=0;entryDy=0;exitX=0.5;exitY=0;exitDx=0;exitDy=0;" parent="1" source="F7GSqLhQtPNdiJpHItuA-5" target="F7GSqLhQtPNdiJpHItuA-12" edge="1">
          <mxGeometry relative="1" as="geometry">
            <mxPoint x="-580" y="-660" as="sourcePoint" />
            <mxPoint x="-420" y="-660" as="targetPoint" />
          </mxGeometry>
        </mxCell>
        <mxCell id="F7GSqLhQtPNdiJpHItuA-26" value="" style="endArrow=none;html=1;rounded=0;fontSize=12;startSize=8;endSize=8;curved=1;entryX=0;entryY=0.5;entryDx=0;entryDy=0;exitX=1;exitY=0.5;exitDx=0;exitDy=0;" parent="1" source="F7GSqLhQtPNdiJpHItuA-9" target="F7GSqLhQtPNdiJpHItuA-5" edge="1">
          <mxGeometry relative="1" as="geometry">
            <mxPoint x="-580" y="-660" as="sourcePoint" />
            <mxPoint x="-420" y="-660" as="targetPoint" />
          </mxGeometry>
        </mxCell>
        <mxCell id="F7GSqLhQtPNdiJpHItuA-27" value="" style="endArrow=none;html=1;rounded=0;fontSize=12;startSize=8;endSize=8;curved=1;entryX=0.5;entryY=0;entryDx=0;entryDy=0;exitX=1;exitY=0.5;exitDx=0;exitDy=0;" parent="1" source="F7GSqLhQtPNdiJpHItuA-38" target="F7GSqLhQtPNdiJpHItuA-5" edge="1">
          <mxGeometry relative="1" as="geometry">
            <mxPoint x="-580" y="-660" as="sourcePoint" />
            <mxPoint x="-420" y="-660" as="targetPoint" />
          </mxGeometry>
        </mxCell>
        <mxCell id="F7GSqLhQtPNdiJpHItuA-28" value="" style="endArrow=none;html=1;rounded=0;fontSize=12;startSize=8;endSize=8;curved=1;exitX=0.5;exitY=0;exitDx=0;exitDy=0;entryX=0.5;entryY=1;entryDx=0;entryDy=0;" parent="1" source="F7GSqLhQtPNdiJpHItuA-5" target="F7GSqLhQtPNdiJpHItuA-7" edge="1">
          <mxGeometry relative="1" as="geometry">
            <mxPoint x="-580" y="-660" as="sourcePoint" />
            <mxPoint x="-420" y="-660" as="targetPoint" />
          </mxGeometry>
        </mxCell>
        <mxCell id="F7GSqLhQtPNdiJpHItuA-29" value="" style="endArrow=none;html=1;rounded=0;fontSize=12;startSize=8;endSize=8;curved=1;entryX=0.5;entryY=0;entryDx=0;entryDy=0;exitX=0;exitY=0.5;exitDx=0;exitDy=0;" parent="1" source="F7GSqLhQtPNdiJpHItuA-13" target="F7GSqLhQtPNdiJpHItuA-5" edge="1">
          <mxGeometry relative="1" as="geometry">
            <mxPoint x="-580" y="-660" as="sourcePoint" />
            <mxPoint x="-420" y="-660" as="targetPoint" />
          </mxGeometry>
        </mxCell>
        <mxCell id="F7GSqLhQtPNdiJpHItuA-34" value="" style="endArrow=none;html=1;rounded=0;fontSize=12;startSize=8;endSize=8;curved=1;entryX=0.5;entryY=1;entryDx=0;entryDy=0;exitX=0.5;exitY=0;exitDx=0;exitDy=0;" parent="1" source="F7GSqLhQtPNdiJpHItuA-14" target="F7GSqLhQtPNdiJpHItuA-5" edge="1">
          <mxGeometry relative="1" as="geometry">
            <mxPoint x="-580" y="-660" as="sourcePoint" />
            <mxPoint x="-420" y="-660" as="targetPoint" />
          </mxGeometry>
        </mxCell>
        <mxCell id="F7GSqLhQtPNdiJpHItuA-35" value="" style="endArrow=none;html=1;rounded=0;fontSize=12;startSize=8;endSize=8;curved=1;exitX=0;exitY=0.5;exitDx=0;exitDy=0;entryX=1;entryY=0.5;entryDx=0;entryDy=0;" parent="1" source="F7GSqLhQtPNdiJpHItuA-9" target="F7GSqLhQtPNdiJpHItuA-11" edge="1">
          <mxGeometry relative="1" as="geometry">
            <mxPoint x="-580" y="-660" as="sourcePoint" />
            <mxPoint x="-420" y="-660" as="targetPoint" />
          </mxGeometry>
        </mxCell>
        <mxCell id="F7GSqLhQtPNdiJpHItuA-36" value="" style="endArrow=none;html=1;rounded=0;fontSize=12;startSize=8;endSize=8;curved=1;exitX=0;exitY=0.5;exitDx=0;exitDy=0;entryX=1;entryY=0.5;entryDx=0;entryDy=0;" parent="1" source="F7GSqLhQtPNdiJpHItuA-9" target="F7GSqLhQtPNdiJpHItuA-10" edge="1">
          <mxGeometry relative="1" as="geometry">
            <mxPoint x="-580" y="-660" as="sourcePoint" />
            <mxPoint x="-420" y="-660" as="targetPoint" />
          </mxGeometry>
        </mxCell>
        <mxCell id="F7GSqLhQtPNdiJpHItuA-38" value="고객명" style="ellipse;whiteSpace=wrap;html=1;align=center;fontSize=16;" parent="1" vertex="1">
          <mxGeometry x="-640" y="-750" width="100" height="40" as="geometry" />
        </mxCell>
        <mxCell id="F7GSqLhQtPNdiJpHItuA-40" value="" style="endArrow=none;html=1;rounded=0;fontSize=12;startSize=8;endSize=8;curved=1;exitX=1;exitY=0.5;exitDx=0;exitDy=0;entryX=0;entryY=0.5;entryDx=0;entryDy=0;" parent="1" source="F7GSqLhQtPNdiJpHItuA-6" target="F7GSqLhQtPNdiJpHItuA-5" edge="1">
          <mxGeometry relative="1" as="geometry">
            <mxPoint x="-580" y="-660" as="sourcePoint" />
            <mxPoint x="-420" y="-660" as="targetPoint" />
          </mxGeometry>
        </mxCell>
        <mxCell id="F7GSqLhQtPNdiJpHItuA-41" value="가입일" style="ellipse;whiteSpace=wrap;html=1;align=center;fontSize=16;" parent="1" vertex="1">
          <mxGeometry x="-610" y="-590" width="100" height="40" as="geometry" />
        </mxCell>
        <mxCell id="F7GSqLhQtPNdiJpHItuA-42" value="" style="endArrow=none;html=1;rounded=0;fontSize=12;startSize=8;endSize=8;curved=1;exitX=1;exitY=0.5;exitDx=0;exitDy=0;" parent="1" source="F7GSqLhQtPNdiJpHItuA-41" edge="1">
          <mxGeometry relative="1" as="geometry">
            <mxPoint x="-580" y="-660" as="sourcePoint" />
            <mxPoint x="-500" y="-670" as="targetPoint" />
          </mxGeometry>
        </mxCell>
        <mxCell id="F7GSqLhQtPNdiJpHItuA-43" value="지역" style="whiteSpace=wrap;html=1;align=center;fontSize=16;" parent="1" vertex="1">
          <mxGeometry x="-500" y="-430" width="100" height="40" as="geometry" />
        </mxCell>
        <mxCell id="F7GSqLhQtPNdiJpHItuA-44" value="지역명" style="ellipse;whiteSpace=wrap;html=1;align=center;fontSize=16;" parent="1" vertex="1">
          <mxGeometry x="-650" y="-500" width="100" height="40" as="geometry" />
        </mxCell>
        <mxCell id="F7GSqLhQtPNdiJpHItuA-46" value="지역코드" style="ellipse;whiteSpace=wrap;html=1;align=center;fontStyle=4;fontSize=16;fontColor=#FF0F0F;" parent="1" vertex="1">
          <mxGeometry x="-650" y="-370" width="100" height="40" as="geometry" />
        </mxCell>
        <mxCell id="F7GSqLhQtPNdiJpHItuA-47" value="" style="endArrow=none;html=1;rounded=0;fontSize=12;startSize=8;endSize=8;curved=1;entryX=0;entryY=0.5;entryDx=0;entryDy=0;exitX=1;exitY=0.5;exitDx=0;exitDy=0;" parent="1" source="F7GSqLhQtPNdiJpHItuA-44" target="F7GSqLhQtPNdiJpHItuA-43" edge="1">
          <mxGeometry relative="1" as="geometry">
            <mxPoint x="-400" y="-530" as="sourcePoint" />
            <mxPoint x="-240" y="-530" as="targetPoint" />
          </mxGeometry>
        </mxCell>
        <mxCell id="F7GSqLhQtPNdiJpHItuA-48" value="" style="endArrow=none;html=1;rounded=0;fontSize=12;startSize=8;endSize=8;curved=1;entryX=0;entryY=0.5;entryDx=0;entryDy=0;exitX=1;exitY=0.5;exitDx=0;exitDy=0;" parent="1" source="F7GSqLhQtPNdiJpHItuA-46" target="F7GSqLhQtPNdiJpHItuA-43" edge="1">
          <mxGeometry relative="1" as="geometry">
            <mxPoint x="-400" y="-530" as="sourcePoint" />
            <mxPoint x="-240" y="-530" as="targetPoint" />
          </mxGeometry>
        </mxCell>
        <mxCell id="F7GSqLhQtPNdiJpHItuA-49" value="제품" style="whiteSpace=wrap;html=1;align=center;fontSize=16;" parent="1" vertex="1">
          <mxGeometry x="-80" y="-695" width="100" height="40" as="geometry" />
        </mxCell>
        <mxCell id="F7GSqLhQtPNdiJpHItuA-50" value="고객" style="ellipse;whiteSpace=wrap;html=1;align=center;fontSize=16;" parent="1" vertex="1">
          <mxGeometry x="-30" y="-585" width="100" height="40" as="geometry" />
        </mxCell>
        <mxCell id="F7GSqLhQtPNdiJpHItuA-51" value="제품명" style="ellipse;whiteSpace=wrap;html=1;align=center;fontSize=16;" parent="1" vertex="1">
          <mxGeometry x="10" y="-795" width="100" height="40" as="geometry" />
        </mxCell>
        <mxCell id="F7GSqLhQtPNdiJpHItuA-52" value="제품색상" style="ellipse;shape=doubleEllipse;margin=3;whiteSpace=wrap;html=1;align=center;fontSize=16;fontColor=#f50505;" parent="1" vertex="1">
          <mxGeometry x="110" y="-685" width="100" height="40" as="geometry" />
        </mxCell>
        <mxCell id="F7GSqLhQtPNdiJpHItuA-53" value="제품구분" style="ellipse;whiteSpace=wrap;html=1;align=center;fontSize=16;" parent="1" vertex="1">
          <mxGeometry x="80" y="-745" width="100" height="40" as="geometry" />
        </mxCell>
        <mxCell id="F7GSqLhQtPNdiJpHItuA-54" value="가격" style="ellipse;whiteSpace=wrap;html=1;align=center;fontSize=16;" parent="1" vertex="1">
          <mxGeometry x="80" y="-635" width="100" height="40" as="geometry" />
        </mxCell>
        <mxCell id="F7GSqLhQtPNdiJpHItuA-55" value="제품코드" style="ellipse;whiteSpace=wrap;html=1;align=center;fontStyle=4;fontSize=16;fontColor=#f00000;" parent="1" vertex="1">
          <mxGeometry x="-110" y="-785" width="100" height="40" as="geometry" />
        </mxCell>
        <mxCell id="F7GSqLhQtPNdiJpHItuA-56" value="" style="endArrow=none;html=1;rounded=0;fontSize=12;startSize=8;endSize=8;curved=1;entryX=0.5;entryY=0;entryDx=0;entryDy=0;exitX=0.5;exitY=1;exitDx=0;exitDy=0;" parent="1" source="F7GSqLhQtPNdiJpHItuA-55" target="F7GSqLhQtPNdiJpHItuA-49" edge="1">
          <mxGeometry relative="1" as="geometry">
            <mxPoint x="-160" y="-785" as="sourcePoint" />
            <mxPoint y="-785" as="targetPoint" />
          </mxGeometry>
        </mxCell>
        <mxCell id="F7GSqLhQtPNdiJpHItuA-57" value="" style="endArrow=none;html=1;rounded=0;fontSize=12;startSize=8;endSize=8;curved=1;exitX=0.5;exitY=0;exitDx=0;exitDy=0;entryX=0.5;entryY=1;entryDx=0;entryDy=0;" parent="1" source="F7GSqLhQtPNdiJpHItuA-49" target="F7GSqLhQtPNdiJpHItuA-51" edge="1">
          <mxGeometry relative="1" as="geometry">
            <mxPoint x="-160" y="-785" as="sourcePoint" />
            <mxPoint y="-785" as="targetPoint" />
          </mxGeometry>
        </mxCell>
        <mxCell id="F7GSqLhQtPNdiJpHItuA-58" value="" style="endArrow=none;html=1;rounded=0;fontSize=12;startSize=8;endSize=8;curved=1;exitX=1;exitY=0.5;exitDx=0;exitDy=0;entryX=0;entryY=1;entryDx=0;entryDy=0;" parent="1" source="F7GSqLhQtPNdiJpHItuA-49" target="F7GSqLhQtPNdiJpHItuA-53" edge="1">
          <mxGeometry relative="1" as="geometry">
            <mxPoint x="-160" y="-785" as="sourcePoint" />
            <mxPoint y="-785" as="targetPoint" />
          </mxGeometry>
        </mxCell>
        <mxCell id="F7GSqLhQtPNdiJpHItuA-59" value="" style="endArrow=none;html=1;rounded=0;fontSize=12;startSize=8;endSize=8;curved=1;exitX=1;exitY=0.5;exitDx=0;exitDy=0;entryX=0;entryY=0.5;entryDx=0;entryDy=0;" parent="1" source="F7GSqLhQtPNdiJpHItuA-49" target="F7GSqLhQtPNdiJpHItuA-52" edge="1">
          <mxGeometry relative="1" as="geometry">
            <mxPoint x="-160" y="-785" as="sourcePoint" />
            <mxPoint y="-785" as="targetPoint" />
          </mxGeometry>
        </mxCell>
        <mxCell id="F7GSqLhQtPNdiJpHItuA-60" value="" style="endArrow=none;html=1;rounded=0;fontSize=12;startSize=8;endSize=8;curved=1;exitX=1;exitY=0.5;exitDx=0;exitDy=0;entryX=0.01;entryY=0.35;entryDx=0;entryDy=0;entryPerimeter=0;" parent="1" source="F7GSqLhQtPNdiJpHItuA-49" target="F7GSqLhQtPNdiJpHItuA-54" edge="1">
          <mxGeometry relative="1" as="geometry">
            <mxPoint x="-160" y="-785" as="sourcePoint" />
            <mxPoint y="-785" as="targetPoint" />
          </mxGeometry>
        </mxCell>
        <mxCell id="F7GSqLhQtPNdiJpHItuA-61" value="" style="endArrow=none;html=1;rounded=0;fontSize=12;startSize=8;endSize=8;curved=1;exitX=0.5;exitY=1;exitDx=0;exitDy=0;entryX=0.5;entryY=0;entryDx=0;entryDy=0;" parent="1" source="F7GSqLhQtPNdiJpHItuA-49" target="F7GSqLhQtPNdiJpHItuA-50" edge="1">
          <mxGeometry relative="1" as="geometry">
            <mxPoint x="-160" y="-785" as="sourcePoint" />
            <mxPoint y="-785" as="targetPoint" />
          </mxGeometry>
        </mxCell>
        <mxCell id="F7GSqLhQtPNdiJpHItuA-62" value="관리" style="shape=rhombus;perimeter=rhombusPerimeter;whiteSpace=wrap;html=1;align=center;fontSize=16;" parent="1" vertex="1">
          <mxGeometry x="-510" y="-560" width="120" height="60" as="geometry" />
        </mxCell>
        <mxCell id="F7GSqLhQtPNdiJpHItuA-65" value="" style="endArrow=none;html=1;rounded=0;fontSize=12;startSize=8;endSize=8;curved=1;exitX=0.5;exitY=1;exitDx=0;exitDy=0;entryX=0.5;entryY=0;entryDx=0;entryDy=0;" parent="1" source="F7GSqLhQtPNdiJpHItuA-5" target="F7GSqLhQtPNdiJpHItuA-62" edge="1">
          <mxGeometry relative="1" as="geometry">
            <mxPoint x="-460" y="-550" as="sourcePoint" />
            <mxPoint x="-300" y="-550" as="targetPoint" />
          </mxGeometry>
        </mxCell>
        <mxCell id="F7GSqLhQtPNdiJpHItuA-66" value="N" style="resizable=0;html=1;whiteSpace=wrap;align=right;verticalAlign=bottom;fontSize=16;" parent="F7GSqLhQtPNdiJpHItuA-65" connectable="0" vertex="1">
          <mxGeometry x="1" relative="1" as="geometry">
            <mxPoint x="-10" as="offset" />
          </mxGeometry>
        </mxCell>
        <mxCell id="F7GSqLhQtPNdiJpHItuA-67" value="" style="endArrow=none;html=1;rounded=0;fontSize=12;startSize=8;endSize=8;curved=1;exitX=0.5;exitY=0;exitDx=0;exitDy=0;" parent="1" source="F7GSqLhQtPNdiJpHItuA-43" target="F7GSqLhQtPNdiJpHItuA-62" edge="1">
          <mxGeometry relative="1" as="geometry">
            <mxPoint x="-460" y="-550" as="sourcePoint" />
            <mxPoint x="-450" y="-490" as="targetPoint" />
          </mxGeometry>
        </mxCell>
        <mxCell id="F7GSqLhQtPNdiJpHItuA-68" value="1" style="resizable=0;html=1;whiteSpace=wrap;align=right;verticalAlign=bottom;fontSize=16;" parent="F7GSqLhQtPNdiJpHItuA-67" connectable="0" vertex="1">
          <mxGeometry x="1" relative="1" as="geometry">
            <mxPoint y="20" as="offset" />
          </mxGeometry>
        </mxCell>
        <mxCell id="F7GSqLhQtPNdiJpHItuA-69" style="edgeStyle=none;curved=1;rounded=0;orthogonalLoop=1;jettySize=auto;html=1;entryX=0;entryY=1;entryDx=0;entryDy=0;fontSize=12;startSize=8;endSize=8;" parent="1" source="F7GSqLhQtPNdiJpHItuA-55" target="F7GSqLhQtPNdiJpHItuA-55" edge="1">
          <mxGeometry relative="1" as="geometry" />
        </mxCell>
        <mxCell id="F7GSqLhQtPNdiJpHItuA-70" value="구매" style="shape=rhombus;perimeter=rhombusPerimeter;whiteSpace=wrap;html=1;align=center;fontSize=16;" parent="1" vertex="1">
          <mxGeometry x="-310" y="-695" width="120" height="60" as="geometry" />
        </mxCell>
        <mxCell id="F7GSqLhQtPNdiJpHItuA-73" value="구매일자" style="ellipse;whiteSpace=wrap;html=1;align=center;fontSize=16;" parent="1" vertex="1">
          <mxGeometry x="-230" y="-560" width="100" height="40" as="geometry" />
        </mxCell>
        <mxCell id="F7GSqLhQtPNdiJpHItuA-74" value="수량" style="ellipse;whiteSpace=wrap;html=1;align=center;fontSize=16;" parent="1" vertex="1">
          <mxGeometry x="-350" y="-560" width="100" height="40" as="geometry" />
        </mxCell>
        <mxCell id="F7GSqLhQtPNdiJpHItuA-75" value="" style="endArrow=none;html=1;rounded=0;fontSize=12;startSize=8;endSize=8;curved=1;entryX=0.5;entryY=1;entryDx=0;entryDy=0;exitX=0.5;exitY=0;exitDx=0;exitDy=0;" parent="1" source="F7GSqLhQtPNdiJpHItuA-74" target="F7GSqLhQtPNdiJpHItuA-70" edge="1">
          <mxGeometry relative="1" as="geometry">
            <mxPoint x="-220" y="-530" as="sourcePoint" />
            <mxPoint x="-60" y="-530" as="targetPoint" />
          </mxGeometry>
        </mxCell>
        <mxCell id="F7GSqLhQtPNdiJpHItuA-76" value="" style="endArrow=none;html=1;rounded=0;fontSize=12;startSize=8;endSize=8;curved=1;exitX=0.5;exitY=0;exitDx=0;exitDy=0;entryX=0.5;entryY=1;entryDx=0;entryDy=0;" parent="1" source="F7GSqLhQtPNdiJpHItuA-73" target="F7GSqLhQtPNdiJpHItuA-70" edge="1">
          <mxGeometry relative="1" as="geometry">
            <mxPoint x="-220" y="-530" as="sourcePoint" />
            <mxPoint x="-250" y="-630" as="targetPoint" />
          </mxGeometry>
        </mxCell>
        <mxCell id="F7GSqLhQtPNdiJpHItuA-84" value="" style="endArrow=none;html=1;rounded=0;fontSize=12;startSize=8;endSize=8;curved=1;entryX=0;entryY=0.5;entryDx=0;entryDy=0;exitX=1;exitY=0.5;exitDx=0;exitDy=0;" parent="1" source="F7GSqLhQtPNdiJpHItuA-5" target="F7GSqLhQtPNdiJpHItuA-70" edge="1">
          <mxGeometry relative="1" as="geometry">
            <mxPoint x="-300" y="-621" as="sourcePoint" />
            <mxPoint x="-140" y="-621" as="targetPoint" />
          </mxGeometry>
        </mxCell>
        <mxCell id="F7GSqLhQtPNdiJpHItuA-85" value="1" style="resizable=0;html=1;whiteSpace=wrap;align=left;verticalAlign=bottom;fontSize=16;" parent="F7GSqLhQtPNdiJpHItuA-84" connectable="0" vertex="1">
          <mxGeometry x="-1" relative="1" as="geometry" />
        </mxCell>
        <mxCell id="F7GSqLhQtPNdiJpHItuA-86" value="M" style="resizable=0;html=1;whiteSpace=wrap;align=right;verticalAlign=bottom;fontSize=16;" parent="F7GSqLhQtPNdiJpHItuA-84" connectable="0" vertex="1">
          <mxGeometry x="1" relative="1" as="geometry" />
        </mxCell>
        <mxCell id="F7GSqLhQtPNdiJpHItuA-87" value="" style="endArrow=none;html=1;rounded=0;fontSize=12;startSize=8;endSize=8;curved=1;entryX=0;entryY=0.5;entryDx=0;entryDy=0;exitX=1;exitY=0.5;exitDx=0;exitDy=0;" parent="1" source="F7GSqLhQtPNdiJpHItuA-70" target="F7GSqLhQtPNdiJpHItuA-49" edge="1">
          <mxGeometry relative="1" as="geometry">
            <mxPoint x="-220" y="-530" as="sourcePoint" />
            <mxPoint x="-60" y="-530" as="targetPoint" />
          </mxGeometry>
        </mxCell>
        <mxCell id="F7GSqLhQtPNdiJpHItuA-88" value="N" style="resizable=0;html=1;whiteSpace=wrap;align=left;verticalAlign=bottom;fontSize=16;" parent="F7GSqLhQtPNdiJpHItuA-87" connectable="0" vertex="1">
          <mxGeometry x="-1" relative="1" as="geometry" />
        </mxCell>
        <mxCell id="F7GSqLhQtPNdiJpHItuA-89" value="1" style="resizable=0;html=1;whiteSpace=wrap;align=right;verticalAlign=bottom;fontSize=16;" parent="F7GSqLhQtPNdiJpHItuA-87" connectable="0" vertex="1">
          <mxGeometry x="1" relative="1" as="geometry" />
        </mxCell>
        <mxCell id="F7GSqLhQtPNdiJpHItuA-90" value="&lt;b&gt;온라인 전자상거래 ERD_ 이동주&lt;/b&gt;" style="whiteSpace=wrap;html=1;align=center;fontSize=16;" parent="1" vertex="1">
          <mxGeometry x="-780" y="-840" width="280" height="40" as="geometry" />
        </mxCell>
        <mxCell id="RGANVZv_4pKWHxWABC9z-1" value="고객" style="shape=table;startSize=30;container=1;collapsible=1;childLayout=tableLayout;fixedRows=1;rowLines=0;fontStyle=1;align=center;resizeLast=1;html=1;" vertex="1" parent="1">
          <mxGeometry x="-520" y="-170" width="180" height="270" as="geometry" />
        </mxCell>
        <mxCell id="RGANVZv_4pKWHxWABC9z-2" value="" style="shape=tableRow;horizontal=0;startSize=0;swimlaneHead=0;swimlaneBody=0;fillColor=none;collapsible=0;dropTarget=0;points=[[0,0.5],[1,0.5]];portConstraint=eastwest;top=0;left=0;right=0;bottom=1;" vertex="1" parent="RGANVZv_4pKWHxWABC9z-1">
          <mxGeometry y="30" width="180" height="30" as="geometry" />
        </mxCell>
        <mxCell id="RGANVZv_4pKWHxWABC9z-3" value="PK" style="shape=partialRectangle;connectable=0;fillColor=none;top=0;left=0;bottom=0;right=0;fontStyle=1;overflow=hidden;whiteSpace=wrap;html=1;" vertex="1" parent="RGANVZv_4pKWHxWABC9z-2">
          <mxGeometry width="30" height="30" as="geometry">
            <mxRectangle width="30" height="30" as="alternateBounds" />
          </mxGeometry>
        </mxCell>
        <mxCell id="RGANVZv_4pKWHxWABC9z-4" value="고객코드" style="shape=partialRectangle;connectable=0;fillColor=none;top=0;left=0;bottom=0;right=0;align=left;spacingLeft=6;fontStyle=5;overflow=hidden;whiteSpace=wrap;html=1;" vertex="1" parent="RGANVZv_4pKWHxWABC9z-2">
          <mxGeometry x="30" width="150" height="30" as="geometry">
            <mxRectangle width="150" height="30" as="alternateBounds" />
          </mxGeometry>
        </mxCell>
        <mxCell id="RGANVZv_4pKWHxWABC9z-5" value="" style="shape=tableRow;horizontal=0;startSize=0;swimlaneHead=0;swimlaneBody=0;fillColor=none;collapsible=0;dropTarget=0;points=[[0,0.5],[1,0.5]];portConstraint=eastwest;top=0;left=0;right=0;bottom=0;" vertex="1" parent="RGANVZv_4pKWHxWABC9z-1">
          <mxGeometry y="60" width="180" height="30" as="geometry" />
        </mxCell>
        <mxCell id="RGANVZv_4pKWHxWABC9z-6" value="" style="shape=partialRectangle;connectable=0;fillColor=none;top=0;left=0;bottom=0;right=0;editable=1;overflow=hidden;whiteSpace=wrap;html=1;" vertex="1" parent="RGANVZv_4pKWHxWABC9z-5">
          <mxGeometry width="30" height="30" as="geometry">
            <mxRectangle width="30" height="30" as="alternateBounds" />
          </mxGeometry>
        </mxCell>
        <mxCell id="RGANVZv_4pKWHxWABC9z-7" value="이메일" style="shape=partialRectangle;connectable=0;fillColor=none;top=0;left=0;bottom=0;right=0;align=left;spacingLeft=6;overflow=hidden;whiteSpace=wrap;html=1;" vertex="1" parent="RGANVZv_4pKWHxWABC9z-5">
          <mxGeometry x="30" width="150" height="30" as="geometry">
            <mxRectangle width="150" height="30" as="alternateBounds" />
          </mxGeometry>
        </mxCell>
        <mxCell id="RGANVZv_4pKWHxWABC9z-8" value="" style="shape=tableRow;horizontal=0;startSize=0;swimlaneHead=0;swimlaneBody=0;fillColor=none;collapsible=0;dropTarget=0;points=[[0,0.5],[1,0.5]];portConstraint=eastwest;top=0;left=0;right=0;bottom=0;" vertex="1" parent="RGANVZv_4pKWHxWABC9z-1">
          <mxGeometry y="90" width="180" height="30" as="geometry" />
        </mxCell>
        <mxCell id="RGANVZv_4pKWHxWABC9z-9" value="" style="shape=partialRectangle;connectable=0;fillColor=none;top=0;left=0;bottom=0;right=0;editable=1;overflow=hidden;whiteSpace=wrap;html=1;" vertex="1" parent="RGANVZv_4pKWHxWABC9z-8">
          <mxGeometry width="30" height="30" as="geometry">
            <mxRectangle width="30" height="30" as="alternateBounds" />
          </mxGeometry>
        </mxCell>
        <mxCell id="RGANVZv_4pKWHxWABC9z-10" value="전화번호" style="shape=partialRectangle;connectable=0;fillColor=none;top=0;left=0;bottom=0;right=0;align=left;spacingLeft=6;overflow=hidden;whiteSpace=wrap;html=1;" vertex="1" parent="RGANVZv_4pKWHxWABC9z-8">
          <mxGeometry x="30" width="150" height="30" as="geometry">
            <mxRectangle width="150" height="30" as="alternateBounds" />
          </mxGeometry>
        </mxCell>
        <mxCell id="RGANVZv_4pKWHxWABC9z-11" value="" style="shape=tableRow;horizontal=0;startSize=0;swimlaneHead=0;swimlaneBody=0;fillColor=none;collapsible=0;dropTarget=0;points=[[0,0.5],[1,0.5]];portConstraint=eastwest;top=0;left=0;right=0;bottom=0;" vertex="1" parent="RGANVZv_4pKWHxWABC9z-1">
          <mxGeometry y="120" width="180" height="30" as="geometry" />
        </mxCell>
        <mxCell id="RGANVZv_4pKWHxWABC9z-12" value="" style="shape=partialRectangle;connectable=0;fillColor=none;top=0;left=0;bottom=0;right=0;editable=1;overflow=hidden;whiteSpace=wrap;html=1;" vertex="1" parent="RGANVZv_4pKWHxWABC9z-11">
          <mxGeometry width="30" height="30" as="geometry">
            <mxRectangle width="30" height="30" as="alternateBounds" />
          </mxGeometry>
        </mxCell>
        <mxCell id="RGANVZv_4pKWHxWABC9z-13" value="고객명" style="shape=partialRectangle;connectable=0;fillColor=none;top=0;left=0;bottom=0;right=0;align=left;spacingLeft=6;overflow=hidden;whiteSpace=wrap;html=1;" vertex="1" parent="RGANVZv_4pKWHxWABC9z-11">
          <mxGeometry x="30" width="150" height="30" as="geometry">
            <mxRectangle width="150" height="30" as="alternateBounds" />
          </mxGeometry>
        </mxCell>
        <mxCell id="RGANVZv_4pKWHxWABC9z-14" value="" style="shape=tableRow;horizontal=0;startSize=0;swimlaneHead=0;swimlaneBody=0;fillColor=none;collapsible=0;dropTarget=0;points=[[0,0.5],[1,0.5]];portConstraint=eastwest;top=0;left=0;right=0;bottom=0;" vertex="1" parent="RGANVZv_4pKWHxWABC9z-1">
          <mxGeometry y="150" width="180" height="30" as="geometry" />
        </mxCell>
        <mxCell id="RGANVZv_4pKWHxWABC9z-15" value="" style="shape=partialRectangle;connectable=0;fillColor=none;top=0;left=0;bottom=0;right=0;editable=1;overflow=hidden;whiteSpace=wrap;html=1;" vertex="1" parent="RGANVZv_4pKWHxWABC9z-14">
          <mxGeometry width="30" height="30" as="geometry">
            <mxRectangle width="30" height="30" as="alternateBounds" />
          </mxGeometry>
        </mxCell>
        <mxCell id="RGANVZv_4pKWHxWABC9z-16" value="기본주소" style="shape=partialRectangle;connectable=0;fillColor=none;top=0;left=0;bottom=0;right=0;align=left;spacingLeft=6;overflow=hidden;whiteSpace=wrap;html=1;" vertex="1" parent="RGANVZv_4pKWHxWABC9z-14">
          <mxGeometry x="30" width="150" height="30" as="geometry">
            <mxRectangle width="150" height="30" as="alternateBounds" />
          </mxGeometry>
        </mxCell>
        <mxCell id="RGANVZv_4pKWHxWABC9z-17" value="" style="shape=tableRow;horizontal=0;startSize=0;swimlaneHead=0;swimlaneBody=0;fillColor=none;collapsible=0;dropTarget=0;points=[[0,0.5],[1,0.5]];portConstraint=eastwest;top=0;left=0;right=0;bottom=0;" vertex="1" parent="RGANVZv_4pKWHxWABC9z-1">
          <mxGeometry y="180" width="180" height="30" as="geometry" />
        </mxCell>
        <mxCell id="RGANVZv_4pKWHxWABC9z-18" value="" style="shape=partialRectangle;connectable=0;fillColor=none;top=0;left=0;bottom=0;right=0;editable=1;overflow=hidden;whiteSpace=wrap;html=1;" vertex="1" parent="RGANVZv_4pKWHxWABC9z-17">
          <mxGeometry width="30" height="30" as="geometry">
            <mxRectangle width="30" height="30" as="alternateBounds" />
          </mxGeometry>
        </mxCell>
        <mxCell id="RGANVZv_4pKWHxWABC9z-19" value="상세주소" style="shape=partialRectangle;connectable=0;fillColor=none;top=0;left=0;bottom=0;right=0;align=left;spacingLeft=6;overflow=hidden;whiteSpace=wrap;html=1;" vertex="1" parent="RGANVZv_4pKWHxWABC9z-17">
          <mxGeometry x="30" width="150" height="30" as="geometry">
            <mxRectangle width="150" height="30" as="alternateBounds" />
          </mxGeometry>
        </mxCell>
        <mxCell id="RGANVZv_4pKWHxWABC9z-20" value="" style="shape=tableRow;horizontal=0;startSize=0;swimlaneHead=0;swimlaneBody=0;fillColor=none;collapsible=0;dropTarget=0;points=[[0,0.5],[1,0.5]];portConstraint=eastwest;top=0;left=0;right=0;bottom=0;" vertex="1" parent="RGANVZv_4pKWHxWABC9z-1">
          <mxGeometry y="210" width="180" height="30" as="geometry" />
        </mxCell>
        <mxCell id="RGANVZv_4pKWHxWABC9z-21" value="" style="shape=partialRectangle;connectable=0;fillColor=none;top=0;left=0;bottom=0;right=0;editable=1;overflow=hidden;whiteSpace=wrap;html=1;" vertex="1" parent="RGANVZv_4pKWHxWABC9z-20">
          <mxGeometry width="30" height="30" as="geometry">
            <mxRectangle width="30" height="30" as="alternateBounds" />
          </mxGeometry>
        </mxCell>
        <mxCell id="RGANVZv_4pKWHxWABC9z-22" value="가입일" style="shape=partialRectangle;connectable=0;fillColor=none;top=0;left=0;bottom=0;right=0;align=left;spacingLeft=6;overflow=hidden;whiteSpace=wrap;html=1;" vertex="1" parent="RGANVZv_4pKWHxWABC9z-20">
          <mxGeometry x="30" width="150" height="30" as="geometry">
            <mxRectangle width="150" height="30" as="alternateBounds" />
          </mxGeometry>
        </mxCell>
        <mxCell id="RGANVZv_4pKWHxWABC9z-77" value="" style="shape=tableRow;horizontal=0;startSize=0;swimlaneHead=0;swimlaneBody=0;fillColor=none;collapsible=0;dropTarget=0;points=[[0,0.5],[1,0.5]];portConstraint=eastwest;top=0;left=0;right=0;bottom=0;" vertex="1" parent="RGANVZv_4pKWHxWABC9z-1">
          <mxGeometry y="240" width="180" height="30" as="geometry" />
        </mxCell>
        <mxCell id="RGANVZv_4pKWHxWABC9z-78" value="" style="shape=partialRectangle;connectable=0;fillColor=none;top=0;left=0;bottom=0;right=0;editable=1;overflow=hidden;whiteSpace=wrap;html=1;" vertex="1" parent="RGANVZv_4pKWHxWABC9z-77">
          <mxGeometry width="30" height="30" as="geometry">
            <mxRectangle width="30" height="30" as="alternateBounds" />
          </mxGeometry>
        </mxCell>
        <mxCell id="RGANVZv_4pKWHxWABC9z-79" value="지역코드(FK)" style="shape=partialRectangle;connectable=0;fillColor=none;top=0;left=0;bottom=0;right=0;align=left;spacingLeft=6;overflow=hidden;whiteSpace=wrap;html=1;" vertex="1" parent="RGANVZv_4pKWHxWABC9z-77">
          <mxGeometry x="30" width="150" height="30" as="geometry">
            <mxRectangle width="150" height="30" as="alternateBounds" />
          </mxGeometry>
        </mxCell>
        <mxCell id="RGANVZv_4pKWHxWABC9z-45" value="지역" style="shape=table;startSize=30;container=1;collapsible=1;childLayout=tableLayout;fixedRows=1;rowLines=0;fontStyle=1;align=center;resizeLast=1;html=1;" vertex="1" parent="1">
          <mxGeometry x="-780" y="-170" width="180" height="90" as="geometry" />
        </mxCell>
        <mxCell id="RGANVZv_4pKWHxWABC9z-46" value="" style="shape=tableRow;horizontal=0;startSize=0;swimlaneHead=0;swimlaneBody=0;fillColor=none;collapsible=0;dropTarget=0;points=[[0,0.5],[1,0.5]];portConstraint=eastwest;top=0;left=0;right=0;bottom=1;" vertex="1" parent="RGANVZv_4pKWHxWABC9z-45">
          <mxGeometry y="30" width="180" height="30" as="geometry" />
        </mxCell>
        <mxCell id="RGANVZv_4pKWHxWABC9z-47" value="PK" style="shape=partialRectangle;connectable=0;fillColor=none;top=0;left=0;bottom=0;right=0;fontStyle=1;overflow=hidden;whiteSpace=wrap;html=1;" vertex="1" parent="RGANVZv_4pKWHxWABC9z-46">
          <mxGeometry width="30" height="30" as="geometry">
            <mxRectangle width="30" height="30" as="alternateBounds" />
          </mxGeometry>
        </mxCell>
        <mxCell id="RGANVZv_4pKWHxWABC9z-48" value="지역코드" style="shape=partialRectangle;connectable=0;fillColor=none;top=0;left=0;bottom=0;right=0;align=left;spacingLeft=6;fontStyle=5;overflow=hidden;whiteSpace=wrap;html=1;" vertex="1" parent="RGANVZv_4pKWHxWABC9z-46">
          <mxGeometry x="30" width="150" height="30" as="geometry">
            <mxRectangle width="150" height="30" as="alternateBounds" />
          </mxGeometry>
        </mxCell>
        <mxCell id="RGANVZv_4pKWHxWABC9z-49" value="" style="shape=tableRow;horizontal=0;startSize=0;swimlaneHead=0;swimlaneBody=0;fillColor=none;collapsible=0;dropTarget=0;points=[[0,0.5],[1,0.5]];portConstraint=eastwest;top=0;left=0;right=0;bottom=0;" vertex="1" parent="RGANVZv_4pKWHxWABC9z-45">
          <mxGeometry y="60" width="180" height="30" as="geometry" />
        </mxCell>
        <mxCell id="RGANVZv_4pKWHxWABC9z-50" value="" style="shape=partialRectangle;connectable=0;fillColor=none;top=0;left=0;bottom=0;right=0;editable=1;overflow=hidden;whiteSpace=wrap;html=1;" vertex="1" parent="RGANVZv_4pKWHxWABC9z-49">
          <mxGeometry width="30" height="30" as="geometry">
            <mxRectangle width="30" height="30" as="alternateBounds" />
          </mxGeometry>
        </mxCell>
        <mxCell id="RGANVZv_4pKWHxWABC9z-51" value="지역명" style="shape=partialRectangle;connectable=0;fillColor=none;top=0;left=0;bottom=0;right=0;align=left;spacingLeft=6;overflow=hidden;whiteSpace=wrap;html=1;" vertex="1" parent="RGANVZv_4pKWHxWABC9z-49">
          <mxGeometry x="30" width="150" height="30" as="geometry">
            <mxRectangle width="150" height="30" as="alternateBounds" />
          </mxGeometry>
        </mxCell>
        <mxCell id="RGANVZv_4pKWHxWABC9z-58" value="구매" style="shape=table;startSize=30;container=1;collapsible=1;childLayout=tableLayout;fixedRows=1;rowLines=0;fontStyle=1;align=center;resizeLast=1;html=1;" vertex="1" parent="1">
          <mxGeometry x="-250" y="-170" width="180" height="180" as="geometry" />
        </mxCell>
        <mxCell id="RGANVZv_4pKWHxWABC9z-59" value="" style="shape=tableRow;horizontal=0;startSize=0;swimlaneHead=0;swimlaneBody=0;fillColor=none;collapsible=0;dropTarget=0;points=[[0,0.5],[1,0.5]];portConstraint=eastwest;top=0;left=0;right=0;bottom=1;" vertex="1" parent="RGANVZv_4pKWHxWABC9z-58">
          <mxGeometry y="30" width="180" height="30" as="geometry" />
        </mxCell>
        <mxCell id="RGANVZv_4pKWHxWABC9z-60" value="PK" style="shape=partialRectangle;connectable=0;fillColor=none;top=0;left=0;bottom=0;right=0;fontStyle=1;overflow=hidden;whiteSpace=wrap;html=1;" vertex="1" parent="RGANVZv_4pKWHxWABC9z-59">
          <mxGeometry width="30" height="30" as="geometry">
            <mxRectangle width="30" height="30" as="alternateBounds" />
          </mxGeometry>
        </mxCell>
        <mxCell id="RGANVZv_4pKWHxWABC9z-61" value="구매번호" style="shape=partialRectangle;connectable=0;fillColor=none;top=0;left=0;bottom=0;right=0;align=left;spacingLeft=6;fontStyle=5;overflow=hidden;whiteSpace=wrap;html=1;" vertex="1" parent="RGANVZv_4pKWHxWABC9z-59">
          <mxGeometry x="30" width="150" height="30" as="geometry">
            <mxRectangle width="150" height="30" as="alternateBounds" />
          </mxGeometry>
        </mxCell>
        <mxCell id="RGANVZv_4pKWHxWABC9z-62" value="" style="shape=tableRow;horizontal=0;startSize=0;swimlaneHead=0;swimlaneBody=0;fillColor=none;collapsible=0;dropTarget=0;points=[[0,0.5],[1,0.5]];portConstraint=eastwest;top=0;left=0;right=0;bottom=0;" vertex="1" parent="RGANVZv_4pKWHxWABC9z-58">
          <mxGeometry y="60" width="180" height="30" as="geometry" />
        </mxCell>
        <mxCell id="RGANVZv_4pKWHxWABC9z-63" value="" style="shape=partialRectangle;connectable=0;fillColor=none;top=0;left=0;bottom=0;right=0;editable=1;overflow=hidden;whiteSpace=wrap;html=1;" vertex="1" parent="RGANVZv_4pKWHxWABC9z-62">
          <mxGeometry width="30" height="30" as="geometry">
            <mxRectangle width="30" height="30" as="alternateBounds" />
          </mxGeometry>
        </mxCell>
        <mxCell id="RGANVZv_4pKWHxWABC9z-64" value="고객코드(FK)" style="shape=partialRectangle;connectable=0;fillColor=none;top=0;left=0;bottom=0;right=0;align=left;spacingLeft=6;overflow=hidden;whiteSpace=wrap;html=1;" vertex="1" parent="RGANVZv_4pKWHxWABC9z-62">
          <mxGeometry x="30" width="150" height="30" as="geometry">
            <mxRectangle width="150" height="30" as="alternateBounds" />
          </mxGeometry>
        </mxCell>
        <mxCell id="RGANVZv_4pKWHxWABC9z-65" value="" style="shape=tableRow;horizontal=0;startSize=0;swimlaneHead=0;swimlaneBody=0;fillColor=none;collapsible=0;dropTarget=0;points=[[0,0.5],[1,0.5]];portConstraint=eastwest;top=0;left=0;right=0;bottom=0;" vertex="1" parent="RGANVZv_4pKWHxWABC9z-58">
          <mxGeometry y="90" width="180" height="30" as="geometry" />
        </mxCell>
        <mxCell id="RGANVZv_4pKWHxWABC9z-66" value="" style="shape=partialRectangle;connectable=0;fillColor=none;top=0;left=0;bottom=0;right=0;editable=1;overflow=hidden;whiteSpace=wrap;html=1;" vertex="1" parent="RGANVZv_4pKWHxWABC9z-65">
          <mxGeometry width="30" height="30" as="geometry">
            <mxRectangle width="30" height="30" as="alternateBounds" />
          </mxGeometry>
        </mxCell>
        <mxCell id="RGANVZv_4pKWHxWABC9z-67" value="제품코드(FK)" style="shape=partialRectangle;connectable=0;fillColor=none;top=0;left=0;bottom=0;right=0;align=left;spacingLeft=6;overflow=hidden;whiteSpace=wrap;html=1;" vertex="1" parent="RGANVZv_4pKWHxWABC9z-65">
          <mxGeometry x="30" width="150" height="30" as="geometry">
            <mxRectangle width="150" height="30" as="alternateBounds" />
          </mxGeometry>
        </mxCell>
        <mxCell id="RGANVZv_4pKWHxWABC9z-71" value="" style="shape=tableRow;horizontal=0;startSize=0;swimlaneHead=0;swimlaneBody=0;fillColor=none;collapsible=0;dropTarget=0;points=[[0,0.5],[1,0.5]];portConstraint=eastwest;top=0;left=0;right=0;bottom=0;" vertex="1" parent="RGANVZv_4pKWHxWABC9z-58">
          <mxGeometry y="120" width="180" height="30" as="geometry" />
        </mxCell>
        <mxCell id="RGANVZv_4pKWHxWABC9z-72" value="" style="shape=partialRectangle;connectable=0;fillColor=none;top=0;left=0;bottom=0;right=0;editable=1;overflow=hidden;whiteSpace=wrap;html=1;" vertex="1" parent="RGANVZv_4pKWHxWABC9z-71">
          <mxGeometry width="30" height="30" as="geometry">
            <mxRectangle width="30" height="30" as="alternateBounds" />
          </mxGeometry>
        </mxCell>
        <mxCell id="RGANVZv_4pKWHxWABC9z-73" value="구매일자" style="shape=partialRectangle;connectable=0;fillColor=none;top=0;left=0;bottom=0;right=0;align=left;spacingLeft=6;overflow=hidden;whiteSpace=wrap;html=1;" vertex="1" parent="RGANVZv_4pKWHxWABC9z-71">
          <mxGeometry x="30" width="150" height="30" as="geometry">
            <mxRectangle width="150" height="30" as="alternateBounds" />
          </mxGeometry>
        </mxCell>
        <mxCell id="RGANVZv_4pKWHxWABC9z-74" value="" style="shape=tableRow;horizontal=0;startSize=0;swimlaneHead=0;swimlaneBody=0;fillColor=none;collapsible=0;dropTarget=0;points=[[0,0.5],[1,0.5]];portConstraint=eastwest;top=0;left=0;right=0;bottom=0;" vertex="1" parent="RGANVZv_4pKWHxWABC9z-58">
          <mxGeometry y="150" width="180" height="30" as="geometry" />
        </mxCell>
        <mxCell id="RGANVZv_4pKWHxWABC9z-75" value="" style="shape=partialRectangle;connectable=0;fillColor=none;top=0;left=0;bottom=0;right=0;editable=1;overflow=hidden;whiteSpace=wrap;html=1;" vertex="1" parent="RGANVZv_4pKWHxWABC9z-74">
          <mxGeometry width="30" height="30" as="geometry">
            <mxRectangle width="30" height="30" as="alternateBounds" />
          </mxGeometry>
        </mxCell>
        <mxCell id="RGANVZv_4pKWHxWABC9z-76" value="수량" style="shape=partialRectangle;connectable=0;fillColor=none;top=0;left=0;bottom=0;right=0;align=left;spacingLeft=6;overflow=hidden;whiteSpace=wrap;html=1;" vertex="1" parent="RGANVZv_4pKWHxWABC9z-74">
          <mxGeometry x="30" width="150" height="30" as="geometry">
            <mxRectangle width="150" height="30" as="alternateBounds" />
          </mxGeometry>
        </mxCell>
        <mxCell id="RGANVZv_4pKWHxWABC9z-91" value="" style="edgeStyle=entityRelationEdgeStyle;fontSize=12;html=1;endArrow=ERoneToMany;startArrow=ERmandOne;rounded=0;entryX=0;entryY=0.5;entryDx=0;entryDy=0;exitX=1;exitY=0.5;exitDx=0;exitDy=0;" edge="1" parent="1" source="RGANVZv_4pKWHxWABC9z-46" target="RGANVZv_4pKWHxWABC9z-77">
          <mxGeometry width="100" height="100" relative="1" as="geometry">
            <mxPoint x="-250" y="130" as="sourcePoint" />
            <mxPoint x="-150" y="30" as="targetPoint" />
          </mxGeometry>
        </mxCell>
        <mxCell id="RGANVZv_4pKWHxWABC9z-92" value="" style="edgeStyle=entityRelationEdgeStyle;fontSize=12;html=1;endArrow=ERoneToMany;startArrow=ERmandOne;rounded=0;exitX=0;exitY=0.5;exitDx=0;exitDy=0;entryX=1.011;entryY=0.3;entryDx=0;entryDy=0;entryPerimeter=0;" edge="1" parent="1" source="RGANVZv_4pKWHxWABC9z-24" target="RGANVZv_4pKWHxWABC9z-65">
          <mxGeometry width="100" height="100" relative="1" as="geometry">
            <mxPoint x="-40" y="-190" as="sourcePoint" />
            <mxPoint x="60" y="-290" as="targetPoint" />
          </mxGeometry>
        </mxCell>
        <mxCell id="RGANVZv_4pKWHxWABC9z-93" value="" style="edgeStyle=entityRelationEdgeStyle;fontSize=12;html=1;endArrow=ERoneToMany;startArrow=ERmandOne;rounded=0;exitX=1;exitY=0.5;exitDx=0;exitDy=0;entryX=0;entryY=0.5;entryDx=0;entryDy=0;" edge="1" parent="1" source="RGANVZv_4pKWHxWABC9z-2" target="RGANVZv_4pKWHxWABC9z-62">
          <mxGeometry width="100" height="100" relative="1" as="geometry">
            <mxPoint x="-300" y="100" as="sourcePoint" />
            <mxPoint x="-200" as="targetPoint" />
          </mxGeometry>
        </mxCell>
        <mxCell id="RGANVZv_4pKWHxWABC9z-94" value="논리적인 모델링(RM)_이동주" style="whiteSpace=wrap;html=1;align=center;" vertex="1" parent="1">
          <mxGeometry x="-760" y="-250" width="220" height="40" as="geometry" />
        </mxCell>
        <mxCell id="RGANVZv_4pKWHxWABC9z-23" value="제품" style="shape=table;startSize=30;container=1;collapsible=1;childLayout=tableLayout;fixedRows=1;rowLines=0;fontStyle=1;align=center;resizeLast=1;html=1;" vertex="1" parent="1">
          <mxGeometry x="20" y="-170" width="180" height="180" as="geometry" />
        </mxCell>
        <mxCell id="RGANVZv_4pKWHxWABC9z-24" value="" style="shape=tableRow;horizontal=0;startSize=0;swimlaneHead=0;swimlaneBody=0;fillColor=none;collapsible=0;dropTarget=0;points=[[0,0.5],[1,0.5]];portConstraint=eastwest;top=0;left=0;right=0;bottom=1;" vertex="1" parent="RGANVZv_4pKWHxWABC9z-23">
          <mxGeometry y="30" width="180" height="30" as="geometry" />
        </mxCell>
        <mxCell id="RGANVZv_4pKWHxWABC9z-25" value="PK" style="shape=partialRectangle;connectable=0;fillColor=none;top=0;left=0;bottom=0;right=0;fontStyle=1;overflow=hidden;whiteSpace=wrap;html=1;" vertex="1" parent="RGANVZv_4pKWHxWABC9z-24">
          <mxGeometry width="30" height="30" as="geometry">
            <mxRectangle width="30" height="30" as="alternateBounds" />
          </mxGeometry>
        </mxCell>
        <mxCell id="RGANVZv_4pKWHxWABC9z-26" value="제품코드" style="shape=partialRectangle;connectable=0;fillColor=none;top=0;left=0;bottom=0;right=0;align=left;spacingLeft=6;fontStyle=5;overflow=hidden;whiteSpace=wrap;html=1;" vertex="1" parent="RGANVZv_4pKWHxWABC9z-24">
          <mxGeometry x="30" width="150" height="30" as="geometry">
            <mxRectangle width="150" height="30" as="alternateBounds" />
          </mxGeometry>
        </mxCell>
        <mxCell id="RGANVZv_4pKWHxWABC9z-27" value="" style="shape=tableRow;horizontal=0;startSize=0;swimlaneHead=0;swimlaneBody=0;fillColor=none;collapsible=0;dropTarget=0;points=[[0,0.5],[1,0.5]];portConstraint=eastwest;top=0;left=0;right=0;bottom=0;" vertex="1" parent="RGANVZv_4pKWHxWABC9z-23">
          <mxGeometry y="60" width="180" height="30" as="geometry" />
        </mxCell>
        <mxCell id="RGANVZv_4pKWHxWABC9z-28" value="" style="shape=partialRectangle;connectable=0;fillColor=none;top=0;left=0;bottom=0;right=0;editable=1;overflow=hidden;whiteSpace=wrap;html=1;" vertex="1" parent="RGANVZv_4pKWHxWABC9z-27">
          <mxGeometry width="30" height="30" as="geometry">
            <mxRectangle width="30" height="30" as="alternateBounds" />
          </mxGeometry>
        </mxCell>
        <mxCell id="RGANVZv_4pKWHxWABC9z-29" value="제품코드(Unique)" style="shape=partialRectangle;connectable=0;fillColor=none;top=0;left=0;bottom=0;right=0;align=left;spacingLeft=6;overflow=hidden;whiteSpace=wrap;html=1;" vertex="1" parent="RGANVZv_4pKWHxWABC9z-27">
          <mxGeometry x="30" width="150" height="30" as="geometry">
            <mxRectangle width="150" height="30" as="alternateBounds" />
          </mxGeometry>
        </mxCell>
        <mxCell id="RGANVZv_4pKWHxWABC9z-30" value="" style="shape=tableRow;horizontal=0;startSize=0;swimlaneHead=0;swimlaneBody=0;fillColor=none;collapsible=0;dropTarget=0;points=[[0,0.5],[1,0.5]];portConstraint=eastwest;top=0;left=0;right=0;bottom=0;" vertex="1" parent="RGANVZv_4pKWHxWABC9z-23">
          <mxGeometry y="90" width="180" height="30" as="geometry" />
        </mxCell>
        <mxCell id="RGANVZv_4pKWHxWABC9z-31" value="" style="shape=partialRectangle;connectable=0;fillColor=none;top=0;left=0;bottom=0;right=0;editable=1;overflow=hidden;whiteSpace=wrap;html=1;" vertex="1" parent="RGANVZv_4pKWHxWABC9z-30">
          <mxGeometry width="30" height="30" as="geometry">
            <mxRectangle width="30" height="30" as="alternateBounds" />
          </mxGeometry>
        </mxCell>
        <mxCell id="RGANVZv_4pKWHxWABC9z-32" value="제품구분" style="shape=partialRectangle;connectable=0;fillColor=none;top=0;left=0;bottom=0;right=0;align=left;spacingLeft=6;overflow=hidden;whiteSpace=wrap;html=1;" vertex="1" parent="RGANVZv_4pKWHxWABC9z-30">
          <mxGeometry x="30" width="150" height="30" as="geometry">
            <mxRectangle width="150" height="30" as="alternateBounds" />
          </mxGeometry>
        </mxCell>
        <mxCell id="RGANVZv_4pKWHxWABC9z-33" value="" style="shape=tableRow;horizontal=0;startSize=0;swimlaneHead=0;swimlaneBody=0;fillColor=none;collapsible=0;dropTarget=0;points=[[0,0.5],[1,0.5]];portConstraint=eastwest;top=0;left=0;right=0;bottom=0;" vertex="1" parent="RGANVZv_4pKWHxWABC9z-23">
          <mxGeometry y="120" width="180" height="30" as="geometry" />
        </mxCell>
        <mxCell id="RGANVZv_4pKWHxWABC9z-34" value="" style="shape=partialRectangle;connectable=0;fillColor=none;top=0;left=0;bottom=0;right=0;editable=1;overflow=hidden;whiteSpace=wrap;html=1;" vertex="1" parent="RGANVZv_4pKWHxWABC9z-33">
          <mxGeometry width="30" height="30" as="geometry">
            <mxRectangle width="30" height="30" as="alternateBounds" />
          </mxGeometry>
        </mxCell>
        <mxCell id="RGANVZv_4pKWHxWABC9z-35" value="가격" style="shape=partialRectangle;connectable=0;fillColor=none;top=0;left=0;bottom=0;right=0;align=left;spacingLeft=6;overflow=hidden;whiteSpace=wrap;html=1;" vertex="1" parent="RGANVZv_4pKWHxWABC9z-33">
          <mxGeometry x="30" width="150" height="30" as="geometry">
            <mxRectangle width="150" height="30" as="alternateBounds" />
          </mxGeometry>
        </mxCell>
        <mxCell id="RGANVZv_4pKWHxWABC9z-96" value="" style="shape=tableRow;horizontal=0;startSize=0;swimlaneHead=0;swimlaneBody=0;fillColor=none;collapsible=0;dropTarget=0;points=[[0,0.5],[1,0.5]];portConstraint=eastwest;top=0;left=0;right=0;bottom=0;" vertex="1" parent="RGANVZv_4pKWHxWABC9z-23">
          <mxGeometry y="150" width="180" height="30" as="geometry" />
        </mxCell>
        <mxCell id="RGANVZv_4pKWHxWABC9z-97" value="" style="shape=partialRectangle;connectable=0;fillColor=none;top=0;left=0;bottom=0;right=0;editable=1;overflow=hidden;whiteSpace=wrap;html=1;" vertex="1" parent="RGANVZv_4pKWHxWABC9z-96">
          <mxGeometry width="30" height="30" as="geometry">
            <mxRectangle width="30" height="30" as="alternateBounds" />
          </mxGeometry>
        </mxCell>
        <mxCell id="RGANVZv_4pKWHxWABC9z-98" value="제품명" style="shape=partialRectangle;connectable=0;fillColor=none;top=0;left=0;bottom=0;right=0;align=left;spacingLeft=6;overflow=hidden;whiteSpace=wrap;html=1;" vertex="1" parent="RGANVZv_4pKWHxWABC9z-96">
          <mxGeometry x="30" width="150" height="30" as="geometry">
            <mxRectangle width="150" height="30" as="alternateBounds" />
          </mxGeometry>
        </mxCell>
        <mxCell id="RGANVZv_4pKWHxWABC9z-99" value="고객" style="shape=table;startSize=30;container=1;collapsible=1;childLayout=tableLayout;fixedRows=1;rowLines=0;fontStyle=1;align=center;resizeLast=1;html=1;" vertex="1" parent="1">
          <mxGeometry x="-600" y="250" width="180" height="120" as="geometry" />
        </mxCell>
        <mxCell id="RGANVZv_4pKWHxWABC9z-100" value="" style="shape=tableRow;horizontal=0;startSize=0;swimlaneHead=0;swimlaneBody=0;fillColor=none;collapsible=0;dropTarget=0;points=[[0,0.5],[1,0.5]];portConstraint=eastwest;top=0;left=0;right=0;bottom=1;" vertex="1" parent="RGANVZv_4pKWHxWABC9z-99">
          <mxGeometry y="30" width="180" height="30" as="geometry" />
        </mxCell>
        <mxCell id="RGANVZv_4pKWHxWABC9z-101" value="PK" style="shape=partialRectangle;connectable=0;fillColor=none;top=0;left=0;bottom=0;right=0;fontStyle=1;overflow=hidden;whiteSpace=wrap;html=1;" vertex="1" parent="RGANVZv_4pKWHxWABC9z-100">
          <mxGeometry width="30" height="30" as="geometry">
            <mxRectangle width="30" height="30" as="alternateBounds" />
          </mxGeometry>
        </mxCell>
        <mxCell id="RGANVZv_4pKWHxWABC9z-102" value="고객번호" style="shape=partialRectangle;connectable=0;fillColor=none;top=0;left=0;bottom=0;right=0;align=left;spacingLeft=6;fontStyle=5;overflow=hidden;whiteSpace=wrap;html=1;" vertex="1" parent="RGANVZv_4pKWHxWABC9z-100">
          <mxGeometry x="30" width="150" height="30" as="geometry">
            <mxRectangle width="150" height="30" as="alternateBounds" />
          </mxGeometry>
        </mxCell>
        <mxCell id="RGANVZv_4pKWHxWABC9z-103" value="" style="shape=tableRow;horizontal=0;startSize=0;swimlaneHead=0;swimlaneBody=0;fillColor=none;collapsible=0;dropTarget=0;points=[[0,0.5],[1,0.5]];portConstraint=eastwest;top=0;left=0;right=0;bottom=0;" vertex="1" parent="RGANVZv_4pKWHxWABC9z-99">
          <mxGeometry y="60" width="180" height="30" as="geometry" />
        </mxCell>
        <mxCell id="RGANVZv_4pKWHxWABC9z-104" value="" style="shape=partialRectangle;connectable=0;fillColor=none;top=0;left=0;bottom=0;right=0;editable=1;overflow=hidden;whiteSpace=wrap;html=1;" vertex="1" parent="RGANVZv_4pKWHxWABC9z-103">
          <mxGeometry width="30" height="30" as="geometry">
            <mxRectangle width="30" height="30" as="alternateBounds" />
          </mxGeometry>
        </mxCell>
        <mxCell id="RGANVZv_4pKWHxWABC9z-105" value="성명" style="shape=partialRectangle;connectable=0;fillColor=none;top=0;left=0;bottom=0;right=0;align=left;spacingLeft=6;overflow=hidden;whiteSpace=wrap;html=1;" vertex="1" parent="RGANVZv_4pKWHxWABC9z-103">
          <mxGeometry x="30" width="150" height="30" as="geometry">
            <mxRectangle width="150" height="30" as="alternateBounds" />
          </mxGeometry>
        </mxCell>
        <mxCell id="RGANVZv_4pKWHxWABC9z-106" value="" style="shape=tableRow;horizontal=0;startSize=0;swimlaneHead=0;swimlaneBody=0;fillColor=none;collapsible=0;dropTarget=0;points=[[0,0.5],[1,0.5]];portConstraint=eastwest;top=0;left=0;right=0;bottom=0;" vertex="1" parent="RGANVZv_4pKWHxWABC9z-99">
          <mxGeometry y="90" width="180" height="30" as="geometry" />
        </mxCell>
        <mxCell id="RGANVZv_4pKWHxWABC9z-107" value="" style="shape=partialRectangle;connectable=0;fillColor=none;top=0;left=0;bottom=0;right=0;editable=1;overflow=hidden;whiteSpace=wrap;html=1;" vertex="1" parent="RGANVZv_4pKWHxWABC9z-106">
          <mxGeometry width="30" height="30" as="geometry">
            <mxRectangle width="30" height="30" as="alternateBounds" />
          </mxGeometry>
        </mxCell>
        <mxCell id="RGANVZv_4pKWHxWABC9z-108" value="주소" style="shape=partialRectangle;connectable=0;fillColor=none;top=0;left=0;bottom=0;right=0;align=left;spacingLeft=6;overflow=hidden;whiteSpace=wrap;html=1;" vertex="1" parent="RGANVZv_4pKWHxWABC9z-106">
          <mxGeometry x="30" width="150" height="30" as="geometry">
            <mxRectangle width="150" height="30" as="alternateBounds" />
          </mxGeometry>
        </mxCell>
        <mxCell id="RGANVZv_4pKWHxWABC9z-112" value="주문" style="shape=table;startSize=30;container=1;collapsible=1;childLayout=tableLayout;fixedRows=1;rowLines=0;fontStyle=1;align=center;resizeLast=1;html=1;" vertex="1" parent="1">
          <mxGeometry x="-350" y="250" width="180" height="120" as="geometry" />
        </mxCell>
        <mxCell id="RGANVZv_4pKWHxWABC9z-113" value="" style="shape=tableRow;horizontal=0;startSize=0;swimlaneHead=0;swimlaneBody=0;fillColor=none;collapsible=0;dropTarget=0;points=[[0,0.5],[1,0.5]];portConstraint=eastwest;top=0;left=0;right=0;bottom=1;" vertex="1" parent="RGANVZv_4pKWHxWABC9z-112">
          <mxGeometry y="30" width="180" height="30" as="geometry" />
        </mxCell>
        <mxCell id="RGANVZv_4pKWHxWABC9z-114" value="PK" style="shape=partialRectangle;connectable=0;fillColor=none;top=0;left=0;bottom=0;right=0;fontStyle=1;overflow=hidden;whiteSpace=wrap;html=1;" vertex="1" parent="RGANVZv_4pKWHxWABC9z-113">
          <mxGeometry width="30" height="30" as="geometry">
            <mxRectangle width="30" height="30" as="alternateBounds" />
          </mxGeometry>
        </mxCell>
        <mxCell id="RGANVZv_4pKWHxWABC9z-115" value="" style="shape=partialRectangle;connectable=0;fillColor=none;top=0;left=0;bottom=0;right=0;align=left;spacingLeft=6;fontStyle=5;overflow=hidden;whiteSpace=wrap;html=1;" vertex="1" parent="RGANVZv_4pKWHxWABC9z-113">
          <mxGeometry x="30" width="150" height="30" as="geometry">
            <mxRectangle width="150" height="30" as="alternateBounds" />
          </mxGeometry>
        </mxCell>
        <mxCell id="RGANVZv_4pKWHxWABC9z-116" value="" style="shape=tableRow;horizontal=0;startSize=0;swimlaneHead=0;swimlaneBody=0;fillColor=none;collapsible=0;dropTarget=0;points=[[0,0.5],[1,0.5]];portConstraint=eastwest;top=0;left=0;right=0;bottom=0;" vertex="1" parent="RGANVZv_4pKWHxWABC9z-112">
          <mxGeometry y="60" width="180" height="30" as="geometry" />
        </mxCell>
        <mxCell id="RGANVZv_4pKWHxWABC9z-117" value="" style="shape=partialRectangle;connectable=0;fillColor=none;top=0;left=0;bottom=0;right=0;editable=1;overflow=hidden;whiteSpace=wrap;html=1;" vertex="1" parent="RGANVZv_4pKWHxWABC9z-116">
          <mxGeometry width="30" height="30" as="geometry">
            <mxRectangle width="30" height="30" as="alternateBounds" />
          </mxGeometry>
        </mxCell>
        <mxCell id="RGANVZv_4pKWHxWABC9z-118" value="고객번호(FK)" style="shape=partialRectangle;connectable=0;fillColor=none;top=0;left=0;bottom=0;right=0;align=left;spacingLeft=6;overflow=hidden;whiteSpace=wrap;html=1;" vertex="1" parent="RGANVZv_4pKWHxWABC9z-116">
          <mxGeometry x="30" width="150" height="30" as="geometry">
            <mxRectangle width="150" height="30" as="alternateBounds" />
          </mxGeometry>
        </mxCell>
        <mxCell id="RGANVZv_4pKWHxWABC9z-119" value="" style="shape=tableRow;horizontal=0;startSize=0;swimlaneHead=0;swimlaneBody=0;fillColor=none;collapsible=0;dropTarget=0;points=[[0,0.5],[1,0.5]];portConstraint=eastwest;top=0;left=0;right=0;bottom=0;" vertex="1" parent="RGANVZv_4pKWHxWABC9z-112">
          <mxGeometry y="90" width="180" height="30" as="geometry" />
        </mxCell>
        <mxCell id="RGANVZv_4pKWHxWABC9z-120" value="" style="shape=partialRectangle;connectable=0;fillColor=none;top=0;left=0;bottom=0;right=0;editable=1;overflow=hidden;whiteSpace=wrap;html=1;" vertex="1" parent="RGANVZv_4pKWHxWABC9z-119">
          <mxGeometry width="30" height="30" as="geometry">
            <mxRectangle width="30" height="30" as="alternateBounds" />
          </mxGeometry>
        </mxCell>
        <mxCell id="RGANVZv_4pKWHxWABC9z-121" value="주문번호(FK)" style="shape=partialRectangle;connectable=0;fillColor=none;top=0;left=0;bottom=0;right=0;align=left;spacingLeft=6;overflow=hidden;whiteSpace=wrap;html=1;" vertex="1" parent="RGANVZv_4pKWHxWABC9z-119">
          <mxGeometry x="30" width="150" height="30" as="geometry">
            <mxRectangle width="150" height="30" as="alternateBounds" />
          </mxGeometry>
        </mxCell>
        <mxCell id="RGANVZv_4pKWHxWABC9z-125" value="주문서" style="shape=table;startSize=30;container=1;collapsible=1;childLayout=tableLayout;fixedRows=1;rowLines=0;fontStyle=1;align=center;resizeLast=1;html=1;" vertex="1" parent="1">
          <mxGeometry x="-100" y="250" width="180" height="180" as="geometry" />
        </mxCell>
        <mxCell id="RGANVZv_4pKWHxWABC9z-126" value="" style="shape=tableRow;horizontal=0;startSize=0;swimlaneHead=0;swimlaneBody=0;fillColor=none;collapsible=0;dropTarget=0;points=[[0,0.5],[1,0.5]];portConstraint=eastwest;top=0;left=0;right=0;bottom=1;" vertex="1" parent="RGANVZv_4pKWHxWABC9z-125">
          <mxGeometry y="30" width="180" height="30" as="geometry" />
        </mxCell>
        <mxCell id="RGANVZv_4pKWHxWABC9z-127" value="PK" style="shape=partialRectangle;connectable=0;fillColor=none;top=0;left=0;bottom=0;right=0;fontStyle=1;overflow=hidden;whiteSpace=wrap;html=1;" vertex="1" parent="RGANVZv_4pKWHxWABC9z-126">
          <mxGeometry width="30" height="30" as="geometry">
            <mxRectangle width="30" height="30" as="alternateBounds" />
          </mxGeometry>
        </mxCell>
        <mxCell id="RGANVZv_4pKWHxWABC9z-128" value="주문번호" style="shape=partialRectangle;connectable=0;fillColor=none;top=0;left=0;bottom=0;right=0;align=left;spacingLeft=6;fontStyle=5;overflow=hidden;whiteSpace=wrap;html=1;" vertex="1" parent="RGANVZv_4pKWHxWABC9z-126">
          <mxGeometry x="30" width="150" height="30" as="geometry">
            <mxRectangle width="150" height="30" as="alternateBounds" />
          </mxGeometry>
        </mxCell>
        <mxCell id="RGANVZv_4pKWHxWABC9z-129" value="" style="shape=tableRow;horizontal=0;startSize=0;swimlaneHead=0;swimlaneBody=0;fillColor=none;collapsible=0;dropTarget=0;points=[[0,0.5],[1,0.5]];portConstraint=eastwest;top=0;left=0;right=0;bottom=0;" vertex="1" parent="RGANVZv_4pKWHxWABC9z-125">
          <mxGeometry y="60" width="180" height="30" as="geometry" />
        </mxCell>
        <mxCell id="RGANVZv_4pKWHxWABC9z-130" value="" style="shape=partialRectangle;connectable=0;fillColor=none;top=0;left=0;bottom=0;right=0;editable=1;overflow=hidden;whiteSpace=wrap;html=1;" vertex="1" parent="RGANVZv_4pKWHxWABC9z-129">
          <mxGeometry width="30" height="30" as="geometry">
            <mxRectangle width="30" height="30" as="alternateBounds" />
          </mxGeometry>
        </mxCell>
        <mxCell id="RGANVZv_4pKWHxWABC9z-131" value="품명" style="shape=partialRectangle;connectable=0;fillColor=none;top=0;left=0;bottom=0;right=0;align=left;spacingLeft=6;overflow=hidden;whiteSpace=wrap;html=1;" vertex="1" parent="RGANVZv_4pKWHxWABC9z-129">
          <mxGeometry x="30" width="150" height="30" as="geometry">
            <mxRectangle width="150" height="30" as="alternateBounds" />
          </mxGeometry>
        </mxCell>
        <mxCell id="RGANVZv_4pKWHxWABC9z-132" value="" style="shape=tableRow;horizontal=0;startSize=0;swimlaneHead=0;swimlaneBody=0;fillColor=none;collapsible=0;dropTarget=0;points=[[0,0.5],[1,0.5]];portConstraint=eastwest;top=0;left=0;right=0;bottom=0;" vertex="1" parent="RGANVZv_4pKWHxWABC9z-125">
          <mxGeometry y="90" width="180" height="30" as="geometry" />
        </mxCell>
        <mxCell id="RGANVZv_4pKWHxWABC9z-133" value="" style="shape=partialRectangle;connectable=0;fillColor=none;top=0;left=0;bottom=0;right=0;editable=1;overflow=hidden;whiteSpace=wrap;html=1;" vertex="1" parent="RGANVZv_4pKWHxWABC9z-132">
          <mxGeometry width="30" height="30" as="geometry">
            <mxRectangle width="30" height="30" as="alternateBounds" />
          </mxGeometry>
        </mxCell>
        <mxCell id="RGANVZv_4pKWHxWABC9z-134" value="수량" style="shape=partialRectangle;connectable=0;fillColor=none;top=0;left=0;bottom=0;right=0;align=left;spacingLeft=6;overflow=hidden;whiteSpace=wrap;html=1;" vertex="1" parent="RGANVZv_4pKWHxWABC9z-132">
          <mxGeometry x="30" width="150" height="30" as="geometry">
            <mxRectangle width="150" height="30" as="alternateBounds" />
          </mxGeometry>
        </mxCell>
        <mxCell id="RGANVZv_4pKWHxWABC9z-135" value="" style="shape=tableRow;horizontal=0;startSize=0;swimlaneHead=0;swimlaneBody=0;fillColor=none;collapsible=0;dropTarget=0;points=[[0,0.5],[1,0.5]];portConstraint=eastwest;top=0;left=0;right=0;bottom=0;" vertex="1" parent="RGANVZv_4pKWHxWABC9z-125">
          <mxGeometry y="120" width="180" height="30" as="geometry" />
        </mxCell>
        <mxCell id="RGANVZv_4pKWHxWABC9z-136" value="" style="shape=partialRectangle;connectable=0;fillColor=none;top=0;left=0;bottom=0;right=0;editable=1;overflow=hidden;whiteSpace=wrap;html=1;" vertex="1" parent="RGANVZv_4pKWHxWABC9z-135">
          <mxGeometry width="30" height="30" as="geometry">
            <mxRectangle width="30" height="30" as="alternateBounds" />
          </mxGeometry>
        </mxCell>
        <mxCell id="RGANVZv_4pKWHxWABC9z-137" value="금액" style="shape=partialRectangle;connectable=0;fillColor=none;top=0;left=0;bottom=0;right=0;align=left;spacingLeft=6;overflow=hidden;whiteSpace=wrap;html=1;" vertex="1" parent="RGANVZv_4pKWHxWABC9z-135">
          <mxGeometry x="30" width="150" height="30" as="geometry">
            <mxRectangle width="150" height="30" as="alternateBounds" />
          </mxGeometry>
        </mxCell>
        <mxCell id="RGANVZv_4pKWHxWABC9z-140" value="" style="shape=tableRow;horizontal=0;startSize=0;swimlaneHead=0;swimlaneBody=0;fillColor=none;collapsible=0;dropTarget=0;points=[[0,0.5],[1,0.5]];portConstraint=eastwest;top=0;left=0;right=0;bottom=0;" vertex="1" parent="RGANVZv_4pKWHxWABC9z-125">
          <mxGeometry y="150" width="180" height="30" as="geometry" />
        </mxCell>
        <mxCell id="RGANVZv_4pKWHxWABC9z-141" value="" style="shape=partialRectangle;connectable=0;fillColor=none;top=0;left=0;bottom=0;right=0;editable=1;overflow=hidden;whiteSpace=wrap;html=1;" vertex="1" parent="RGANVZv_4pKWHxWABC9z-140">
          <mxGeometry width="30" height="30" as="geometry">
            <mxRectangle width="30" height="30" as="alternateBounds" />
          </mxGeometry>
        </mxCell>
        <mxCell id="RGANVZv_4pKWHxWABC9z-142" value="고객번호(FK)" style="shape=partialRectangle;connectable=0;fillColor=none;top=0;left=0;bottom=0;right=0;align=left;spacingLeft=6;overflow=hidden;whiteSpace=wrap;html=1;" vertex="1" parent="RGANVZv_4pKWHxWABC9z-140">
          <mxGeometry x="30" width="150" height="30" as="geometry">
            <mxRectangle width="150" height="30" as="alternateBounds" />
          </mxGeometry>
        </mxCell>
        <mxCell id="RGANVZv_4pKWHxWABC9z-138" value="" style="edgeStyle=entityRelationEdgeStyle;fontSize=12;html=1;endArrow=ERoneToMany;startArrow=ERmandOne;rounded=0;entryX=0;entryY=0.5;entryDx=0;entryDy=0;exitX=1;exitY=0.5;exitDx=0;exitDy=0;" edge="1" parent="1" source="RGANVZv_4pKWHxWABC9z-100" target="RGANVZv_4pKWHxWABC9z-116">
          <mxGeometry width="100" height="100" relative="1" as="geometry">
            <mxPoint x="-390" y="530" as="sourcePoint" />
            <mxPoint x="-290" y="430" as="targetPoint" />
          </mxGeometry>
        </mxCell>
        <mxCell id="RGANVZv_4pKWHxWABC9z-139" value="" style="edgeStyle=entityRelationEdgeStyle;fontSize=12;html=1;endArrow=ERoneToMany;startArrow=ERmandOne;rounded=0;entryX=1;entryY=0.5;entryDx=0;entryDy=0;exitX=0;exitY=0.5;exitDx=0;exitDy=0;" edge="1" parent="1" source="RGANVZv_4pKWHxWABC9z-126" target="RGANVZv_4pKWHxWABC9z-119">
          <mxGeometry width="100" height="100" relative="1" as="geometry">
            <mxPoint x="-110" y="290" as="sourcePoint" />
            <mxPoint x="-120" y="400" as="targetPoint" />
          </mxGeometry>
        </mxCell>
      </root>
    </mxGraphModel>
  </diagram>
</mxfile>
